<?xml version="1.0" standalone="no"?>
<!DOCTYPE svg PUBLIC "-//W3C//DTD SVG 20010904//EN"
 "http://www.w3.org/TR/2001/REC-SVG-20010904/DTD/svg10.dtd">
<svg version="1.0" xmlns="http://www.w3.org/2000/svg"
 width="1280.000000pt" height="640.000000pt" viewBox="0 0 1280.000000 640.000000"
 preserveAspectRatio="xMidYMid meet">
<g transform="translate(0.000000,640.000000) scale(0.100000,-0.100000)"
fill="#000000" stroke="none">
<path d="M7505 5431 c-39 -37 -1431 -581 -1487 -581 -10 0 -87 -22 -171 -49
-227 -73 -522 -161 -802 -240 -662 -185 -1892 -491 -1972 -491 -15 0 -57 9
-93 21 -50 15 -114 22 -284 31 -213 10 -220 10 -235 -9 -9 -11 -45 -40 -81
-64 -36 -23 -100 -71 -143 -106 -43 -35 -81 -63 -85 -64 -4 -1 -32 -2 -62 -3
-35 -2 -76 -12 -115 -30 -40 -18 -133 -42 -285 -71 -461 -89 -875 -163 -1315
-235 -170 -28 -311 -53 -313 -55 -2 -2 27 -13 65 -25 457 -141 828 -336 1498
-788 127 -85 280 -192 340 -237 507 -376 1171 -725 1786 -940 139 -48 1484
-411 1579 -426 l75 -12 220 63 c999 283 2048 657 3130 1115 333 141 924 404
2330 1035 517 233 1102 491 1299 574 390 163 390 163 231 165 -162 2 -624 44
-955 87 -765 99 -1534 267 -2330 509 -875 267 -1447 526 -1770 804 -39 34 -42
35 -55 22z"/>
</g>
</svg>
