<?xml version="1.0" standalone="no"?>
<!DOCTYPE svg PUBLIC "-//W3C//DTD SVG 20010904//EN"
 "http://www.w3.org/TR/2001/REC-SVG-20010904/DTD/svg10.dtd">
<svg version="1.0" xmlns="http://www.w3.org/2000/svg"
 width="1280.000000pt" height="630.000000pt" viewBox="0 0 1280.000000 630.000000"
 preserveAspectRatio="xMidYMid meet">
<g transform="translate(0.000000,630.000000) scale(0.100000,-0.100000)"
fill="#000000" stroke="none">
<path d="M5802 5681 l-387 -166 -352 -274 -352 -274 -168 -236 c-92 -129 -259
-352 -370 -494 -138 -176 -204 -270 -207 -291 -3 -17 -15 -166 -27 -331 l-21
-300 -108 -215 -107 -215 -67 -395 -67 -395 153 -309 153 -309 310 -135 310
-135 300 -210 300 -211 387 -112 387 -113 353 -51 c194 -29 364 -54 378 -57
20 -3 68 26 235 142 116 81 235 159 266 175 30 16 226 81 435 146 370 114 386
120 674 254 l295 137 237 168 238 168 31 81 c105 273 102 257 169 749 l63 458
-53 427 c-29 235 -78 623 -110 863 l-57 436 -115 244 -116 244 -453 173 -454
173 -472 114 c-375 91 -548 127 -848 178 l-377 64 -386 -166z"/>
</g>
</svg>
